PathFileType	4	(X/Y/Z)	 s05c0201.trc
DataRate	CameraRate	NumFrames	NumMarkers	Units	OrigDataRate	OrigDataStartFrame	OrigNumFrames
200	200	4	50	mm	200	1251	2000
Frame#	Time	racr			lacr			c7			jug			rlel			rdr			llel			ldr			s2			lic			ric			lasi			rasi			rpsi			lpsi			rgt			lgt			rth1			rth2			rth3			rth4			rlfc			rmfc			rsh1			rsh2			rsh3			rsh4			rlmal			rmmal			rcal			rtoe			rmt5			lth1			lth2			lth4			lth3			llfc			lmfc			lsh1			lsh2			lsh3			lsh4			llmal			lmmal			lcal			ltoe			lmt5			SBIKE			LBIKE			RBIKE			
		X1	Y1	Z1	X2	Y2	Z2	X3	Y3	Z3	X4	Y4	Z4	X5	Y5	Z5	X6	Y6	Z6	X7	Y7	Z7	X8	Y8	Z8	X9	Y9	Z9	X10	Y10	Z10	X11	Y11	Z11	X12	Y12	Z12	X13	Y13	Z13	X14	Y14	Z14	X15	Y15	Z15	X16	Y16	Z16	X17	Y17	Z17	X18	Y18	Z18	X19	Y19	Z19	X20	Y20	Z20	X21	Y21	Z21	X22	Y22	Z22	X23	Y23	Z23	X24	Y24	Z24	X25	Y25	Z25	X26	Y26	Z26	X27	Y27	Z27	X28	Y28	Z28	X29	Y29	Z29	X30	Y30	Z30	X31	Y31	Z31	X32	Y32	Z32	X33	Y33	Z33	X34	Y34	Z34	X35	Y35	Z35	X36	Y36	Z36	X37	Y37	Z37	X38	Y38	Z38	X39	Y39	Z39	X40	Y40	Z40	X41	Y41	Z41	X42	Y42	Z42	X43	Y43	Z43	X44	Y44	Z44	X45	Y45	Z45	X46	Y46	Z46	X47	Y47	Z47	X48	Y48	Z48	X49	Y49	Z49	X50	Y50	Z50	
1251	6.2550	484.196197	1267.480984	-137.733142	494.084159	1239.836464	-382.931870	468.691935	1336.682521	-276.807965	401.210477	1193.606809	-260.194685	485.475583	1074.429125	68.539377	661.012167	967.832953	-60.398010	539.447534	1087.548113	-624.367881	672.699398	968.103683	-433.346142	-114.664155	1177.866573	-268.654172	29.658192	1180.927722	-409.468090	28.797000	1210.935225	-125.616768	75.055425	1132.478955	-367.322980	72.884398	1145.952867	-147.781547	-80.007975	1229.138273	-231.287235	-77.265868	1225.607354	-316.918826	-17.118418	1067.873300	-95.632835	-19.183285	1089.864694	-435.825067	64.391257	966.371936	-80.526535	130.196484	906.167569	-84.476681	155.723997	822.112756	-93.924881	159.960097	926.632566	-95.046789	246.494801	704.183234	-120.423221	222.018421	691.769075	-224.870002	213.600450	601.997170	-85.154994	232.529812	515.939536	-94.191231	210.025988	433.485610	-92.394026	259.022041	517.056520	-122.511556	212.899658	295.840947	-99.438684	218.575026	321.221609	-179.742026	143.763152	259.606605	-140.491815	440.960421	250.934140	-149.551645	343.548804	222.632958	-80.647162	101.970350	1020.267151	-437.924098	187.512421	1013.671453	-428.962845	198.936053	1044.769278	-409.999554	260.608237	960.161027	-424.846116	377.427940	870.247132	-382.865393	349.276501	850.590281	-278.142361	288.576664	787.786874	-418.480551	243.863890	713.536759	-414.374795	166.517458	669.998423	-423.282479	263.956952	692.211472	-389.361687	84.337934	585.855982	-429.722444	114.981239	584.505117	-351.468979	15.834729	604.184630	-388.862269	176.100515	356.465284	-391.847505	93.820901	429.005113	-455.500810	-259.169615	898.348168	-280.917173	-43.524757	85.020617	-474.970003	-51.797690	80.041738	-77.488734	
1252	6.2600	484.835149	1268.892746	-139.385433	494.223142	1239.355949	-384.909949	469.286109	1336.732037	-278.803716	401.533341	1193.952983	-260.797912	487.221740	1077.055287	68.172490	662.061823	968.282393	-60.211802	538.786180	1085.265717	-625.136708	673.024846	968.249737	-433.344974	-113.564310	1178.820167	-266.827523	28.651607	1182.042947	-407.386071	30.952187	1211.116201	-124.297101	75.104016	1133.806050	-366.440630	74.798067	1145.959894	-147.017001	-78.043200	1229.581338	-228.092722	-76.667559	1226.986033	-315.047008	-16.277995	1067.571454	-94.501547	-18.768806	1092.489053	-434.895803	62.095443	964.439257	-78.948953	126.090483	902.326661	-82.516354	149.116880	817.526224	-91.967556	156.431109	921.825797	-93.210195	237.312163	697.490149	-118.654837	211.677938	685.595337	-222.797315	205.506572	595.190352	-83.528626	225.165546	509.224002	-93.011464	203.519447	426.690472	-91.293102	251.500344	510.873167	-121.515233	207.411808	289.070009	-99.092441	213.262730	314.455444	-179.239413	138.153177	253.843940	-140.283650	435.239505	240.732852	-149.721279	337.455920	213.918182	-80.695328	102.449192	1025.541509	-437.290873	188.342923	1020.456245	-428.476516	199.142345	1051.578256	-409.010788	262.440415	968.414860	-424.913386	381.171375	880.216705	-382.881170	353.577572	860.223166	-277.290613	292.786636	798.084801	-418.160616	248.090221	723.661453	-414.284914	170.705188	680.165254	-422.753187	268.374318	702.058780	-389.490906	88.164798	594.908287	-429.070570	118.981353	593.870258	-351.079487	19.196476	612.252840	-388.306852	183.237872	367.016080	-391.506454	99.965962	438.407719	-455.097404	-258.863114	898.449753	-280.580100	-43.514578	85.071017	-474.952403	-51.800906	80.060425	-77.452370	
1253	6.2650	485.508318	1270.278839	-140.952321	494.159595	1239.072900	-386.892087	469.895902	1336.657096	-280.779432	401.785511	1194.251172	-261.231277	488.982953	1079.549695	67.799450	663.090200	968.610991	-60.016960	538.030256	1083.115535	-625.959716	673.132120	968.300044	-433.393066	-112.428673	1179.795693	-264.735271	28.597009	1183.509527	-407.061000	33.321884	1211.151025	-123.024920	75.170461	1135.313064	-365.870177	76.587483	1145.743833	-146.361340	-76.835829	1230.541822	-222.939043	-76.114218	1228.025687	-312.418112	-15.517328	1067.423579	-93.470666	-18.466454	1095.315916	-434.035694	59.566294	962.913417	-77.322931	121.817812	898.937076	-80.604644	142.424258	813.474389	-89.623312	152.684694	917.587670	-91.215087	227.723519	691.314433	-116.196786	201.529691	679.836331	-220.698441	196.860491	588.904739	-81.851123	217.206652	503.248832	-91.628498	196.264475	420.446693	-90.428485	243.566954	505.033867	-120.197865	201.286895	282.810907	-98.826920	207.685349	308.341685	-178.771794	132.057973	248.804744	-140.460890	428.967686	230.998460	-149.714022	330.760243	205.473854	-80.807845	102.872292	1030.666222	-436.659577	188.879656	1027.130194	-428.104836	199.047013	1058.275802	-408.081830	263.890514	976.553203	-425.176727	384.953728	890.063329	-383.278189	358.108300	869.389803	-277.198621	297.053498	808.123791	-417.763183	251.963394	733.560024	-413.555184	174.744488	690.256908	-422.180714	272.872442	711.865733	-389.791839	92.072935	603.609596	-428.312742	123.131011	602.955194	-350.341832	23.010930	619.848796	-387.848261	191.001667	377.487546	-391.273162	106.494693	447.471084	-454.729034	-258.715770	898.566688	-280.528645	-43.516741	85.157223	-474.924064	-51.788750	80.068771	-77.433737	
1254	6.2700	486.327437	1271.357843	-142.361254	496.295132	1239.809240	-390.568590	470.465789	1336.519713	-282.715699	404.239260	1193.322154	-262.486809	491.051416	1081.860400	67.516481	664.017337	968.828886	-59.822023	537.037732	1081.118371	-626.838736	672.995664	968.274204	-433.445162	-111.273084	1180.678441	-262.379122	27.994632	1184.859985	-405.798995	35.643570	1211.156712	-121.810547	75.098150	1136.792404	-365.278757	78.234730	1145.436478	-145.865982	-75.358071	1231.318206	-220.554220	-75.515805	1229.152892	-309.871056	-14.916883	1067.321764	-92.521291	-18.334454	1098.257097	-433.189746	56.980137	961.481095	-75.804664	117.451447	895.986913	-78.465332	135.809270	810.003627	-87.030165	148.878428	913.818409	-88.923315	218.094474	685.630430	-113.726244	191.809288	674.579777	-218.562223	187.703710	583.258017	-80.080036	208.662337	497.679117	-90.146988	188.141514	414.702796	-89.653674	235.159502	499.950843	-118.393624	194.701754	277.153306	-98.694930	201.872343	302.637303	-178.365081	125.495276	244.122313	-140.614976	422.103064	221.614073	-150.096578	323.511526	197.586862	-80.792803	103.083604	1035.617542	-436.276668	189.175359	1033.730958	-427.874347	198.626603	1064.575295	-407.064543	265.120066	984.275257	-425.346021	388.367890	899.919121	-383.830719	362.601548	878.238671	-277.365521	300.717704	818.052769	-417.480436	255.989962	743.405704	-413.389525	178.781386	700.082672	-421.568114	277.233090	721.489318	-390.132058	96.093707	611.819556	-427.502371	127.459394	611.570133	-349.217178	26.287165	626.669850	-387.128647	199.567302	388.211998	-390.794515	113.546790	456.018517	-454.283613	-258.651589	898.633431	-280.299685	-43.508753	85.223262	-474.914680	-51.789135	80.074803	-77.416942	
